# xmcd
#
# Track frame offsets:
#	150
#	33648
#	58762
#	96924
#	131372
#	169231
#	195478
#	230866
#
# Disc length: 3585 seconds
#
# Revision: 1
# Processed by: cddbd v1.5.2PL0 Copyright (c) Steve Scherf et al.
# Submitted via: audiograbber 1.83.01
#
DISCID=6f0dff08
DTITLE=Grateful Dead - 95-03-30 The Omni, Atlanta GA
DYEAR=1900
DGENRE=
TTITLE0=Touch Of Grey
TTITLE1=Good Morning Little Schoolgirl
TTITLE2=Friend Of The Devil
TTITLE3=Queen Jane Approximately
TTITLE4=Loose Lucy
TTITLE5=Broken Arrow
TTITLE6=Easy Answers
TTITLE7=Alabama Getaway
EXTD=
EXTT0=
EXTT1=
EXTT2=
EXTT3=
EXTT4=
EXTT5=
EXTT6=
EXTT7=
PLAYORDER=
